name Walk3.mot
datacolumns 19
datarows 15
range 0.69500000 0.76500000
endheader

                time	   L_ground_force_vx	   L_ground_force_vy	   L_ground_force_vz	   L_ground_force_px	   L_ground_force_py	   L_ground_force_pz	   R_ground_force_vx	   R_ground_force_vy	   R_ground_force_vz	   R_ground_force_px	   R_ground_force_py	   R_ground_force_pz	   L_ground_torque_x	   L_ground_torque_y	   L_ground_torque_z	   R_ground_torque_x	   R_ground_torque_y	   R_ground_torque_z	
          0.69500000	         -7.75821013	        112.22134428	         -4.52061964	         -0.16106819	          0.00000000	         -0.00913021	         -0.00000005	          0.00000119	          0.00000011	          0.00000000	          0.00000000	          0.00000000	          0.00000000	          0.09121560	          0.00000000	          0.00000000	          0.00000000	          0.00000000	
          0.70000000	        -12.52071503	        160.13242740	         -6.04329415	         -0.21374142	          0.00000000	         -0.01254431	         -0.00000008	          0.00000156	          0.00000013	          0.00000000	          0.00000000	          0.00000000	          0.00000000	          0.16402154	          0.00000000	          0.00000000	          0.00000000	          0.00000000	
          0.70500000	        -18.40314551	        215.09536164	         -7.67241889	         -0.26952261	          0.00000000	         -0.01632108	         -0.00000011	          0.00000195	          0.00000016	          0.00000000	          0.00000000	          0.00000000	          0.00000000	          0.25732809	          0.00000000	          0.00000000	          0.00000001	          0.00000000	
          0.71000000	        -25.31354022	        274.33342828	         -9.26703123	         -0.32384604	          0.00000000	         -0.02020564	         -0.00000015	          0.00000232	          0.00000018	          0.00000000	          0.00000000	          0.00000000	          0.00000000	          0.37150696	          0.00000000	          0.00000000	          0.00000001	          0.00000000	
          0.71500000	        -33.05761532	        333.80572919	        -10.61041162	         -0.37279793	          0.00000000	         -0.02391747	         -0.00000019	          0.00000260	          0.00000019	          0.00000000	          0.00000000	          0.00000000	          0.00000000	          0.50666078	          0.00000000	          0.00000000	          0.00000002	          0.00000000	
          0.72000000	        -41.43566184	        389.88287502	        -11.40894531	         -0.41419598	          0.00000000	         -0.02728406	         -0.00000023	          0.00000272	          0.00000019	          0.00000000	          0.00000000	          0.00000000	          0.00000000	          0.66290994	          0.00000000	          0.00000000	          0.00000003	          0.00000000	
          0.72500000	        -50.26176147	        440.34478100	        -11.38026345	         -0.44721413	          0.00000000	         -0.03023346	         -0.00000027	          0.00000258	          0.00000015	          0.00000000	          0.00000000	          0.00000000	          0.00000000	          0.83910758	          0.00000000	          0.00000000	          0.00000004	          0.00000000	
          0.73000000	        -59.32504191	        484.17966818	        -10.36342415	         -0.47196499	          0.00000000	         -0.03275731	         -0.00000029	          0.00000203	          0.00000008	          0.00000000	          0.00000000	          0.00000000	          0.00000000	          1.03019077	          0.00000000	          0.00000000	          0.00000005	          0.00000000	
          0.73500000	        -68.43198331	        521.56076154	         -8.34498003	         -0.48915909	          0.00000000	         -0.03488353	         -0.00000029	          0.00000093	         -0.00000004	         -0.00000000	          0.00000000	         -0.00000000	          0.00000000	          1.22791826	          0.00000000	          0.00000000	          0.00000005	          0.00000000	
          0.74000000	        -77.46623926	        553.58134346	         -5.42263214	         -0.49984554	          0.00000000	         -0.03665601	         -0.00000025	         -0.00000090	         -0.00000022	         -0.00000000	          0.00000000	         -0.00000000	          0.00000000	          1.42204043	          0.00000000	          0.00000000	          0.00000006	          0.00000000	
          0.74500000	        -86.36682798	        581.70909681	         -1.75556028	         -0.50522165	          0.00000000	         -0.03812219	         -0.00000015	         -0.00000364	         -0.00000048	         -0.00000000	          0.00000000	         -0.00000000	          0.00000000	          1.60153023	          0.00000000	          0.00000000	          0.00000006	          0.00000000	
          0.75000000	        -95.03489268	        607.33731136	          2.47612143	         -0.50649921	          0.00000000	         -0.03932576	          0.00000001	         -0.00000747	         -0.00000083	         -0.00000000	          0.00000000	         -0.00000000	          0.00000000	          1.75692866	          0.00000000	          0.00000000	          0.00000006	          0.00000000	
          0.75500000	       -103.24730394	        631.54781331	          7.10131200	         -0.50481406	          0.00000000	         -0.04030557	          0.00000027	         -0.00001253	         -0.00000126	         -0.00000001	          0.00000000	         -0.00000000	          0.00000000	          1.88296871	          0.00000000	          0.00000000	          0.00000004	          0.00000000	
          0.76000000	       -110.64582018	        655.03027772	         11.96917702	         -0.50117301	          0.00000000	         -0.04109991	          0.00000063	         -0.00001886	         -0.00000179	         -0.00000001	          0.00000000	         -0.00000000	          0.00000000	          1.97867812	          0.00000000	          0.00000000	          0.00000001	          0.00000000	
          0.76500000	       -116.79046565	        678.07648446	         16.93347937	         -0.49642590	          0.00000000	         -0.04174437	          0.00000112	         -0.00002641	         -0.00000239	         -0.00000001	          0.00000000	         -0.00000001	          0.00000000	          2.04668237	          0.00000000	          0.00000000	         -0.00000003	          0.00000000	
